<svg width="35" height="35" viewBox="0 0 35 35" fill="none" xmlns="http://www.w3.org/2000/svg">
<g clip-path="url(#clip0_1_37)">
<path d="M26.25 8.75008H23.3334C23.3334 5.52716 20.723 2.91675 17.5 2.91675C14.2771 2.91675 11.6667 5.52716 11.6667 8.75008H8.75004C7.14587 8.75008 5.83337 10.0626 5.83337 11.6667V29.1667C5.83337 30.7709 7.14587 32.0834 8.75004 32.0834H26.25C27.8542 32.0834 29.1667 30.7709 29.1667 29.1667V11.6667C29.1667 10.0626 27.8542 8.75008 26.25 8.75008ZM14.5834 14.5834C14.5834 15.3855 13.9271 16.0417 13.125 16.0417C12.323 16.0417 11.6667 15.3855 11.6667 14.5834V11.6667H14.5834V14.5834ZM17.5 5.83341C19.1042 5.83341 20.4167 7.14591 20.4167 8.75008H14.5834C14.5834 7.14591 15.8959 5.83341 17.5 5.83341ZM23.3334 14.5834C23.3334 15.3855 22.6771 16.0417 21.875 16.0417C21.073 16.0417 20.4167 15.3855 20.4167 14.5834V11.6667H23.3334V14.5834Z" fill="white"/>
</g>
<defs>
<clipPath id="clip0_1_37">
<rect width="35" height="35" fill="white"/>
</clipPath>
</defs>
</svg>
